<?xml version="1.0" encoding="UTF-8"?>
<svg width="128pt" height="128pt" version="1.1" viewBox="0 0 128 128" xmlns="http://www.w3.org/2000/svg">
 <path d="m100.18 24h-72.348c-6.6133 0-12 5.3867-12 12v56c0 6.6133 5.3867 12 12 12h72.348c6.6133 0 12-5.3867 12-12v-56c0-6.6133-5.3867-12-12-12zm-37.105 42.543-16.07 19.52c-0.79688 0.96094-1.9414 1.4531-3.0938 1.4531-0.89453 0-1.7969-0.30078-2.5391-0.91016-1.7031-1.4062-1.9492-3.9258-0.54688-5.6289l14.008-17.016-14.051-17.645c-1.375-1.7305-1.0898-4.2461 0.63672-5.6211 1.7383-1.3789 4.25-1.0898 5.6211 0.63672l16.07 20.18c1.1758 1.4805 1.1602 3.5742-0.039063 5.0352zm21.02 20.977h-12.375c-2.2109 0-4-1.7891-4-4 0-2.2109 1.7891-4 4-4h12.375c2.2109 0 4 1.7891 4 4 0 2.2109-1.7891 4-4 4z"/>
</svg>
